<?xml version="1.0" encoding="utf-8"?>
<!-- Generator: Adobe Illustrator 19.0.0, SVG Export Plug-In . SVG Version: 6.00 Build 0)  -->
<svg version="1.1" id="Layer_1" xmlns="http://www.w3.org/2000/svg" xmlns:xlink="http://www.w3.org/1999/xlink" x="0px" y="0px"
	 viewBox="0 0 148.7 98" style="enable-background:new 0 0 148.7 98;" xml:space="preserve">
<style type="text/css">
	.st0{fill-rule:evenodd;clip-rule:evenodd;fill:#15A54A;}
	.st1{fill:#15A54A;}
</style>
<path id="XMLID_20_" class="st0" d="M77.2,39.7c0.5,1.1-0.6,1.1-0.9,1.1c-0.5-0.1-1.9-0.1-2.4-0.2c-0.8-0.1-1.6-0.1-2.4-0.1
	c-1.6-0.1-3.3,0.1-4.8,0.1l-1.2,0.1c-0.5,0.2-1,0-1.1-0.4c-0.1-0.5,0.2-0.9,0.3-1.2c0.3-0.7,5.4-11.7,5.5-12
	c0.2-0.3,0.3-0.8,0.8-0.8c0.5,0,0.6,0.4,0.8,0.8L77.2,39.7z M35.2,12.7C50.2,1.5,72.6,0,90.1,5.1c3.1,0.9,6.4,2.3,9.3,3.7
	c9,4.6,17.4,12.7,17.9,23.3c0.5,9.8-5.8,17.4-13.3,22.6c-1.7,1.2-4,2.5-5.9,3.4c-4,1.9-7.8,3.1-12.2,4.2c-16.2,4-37.9,1.4-51.2-9
	c-0.2-0.2-1-0.8-1.2-0.9c-8.2-7.6-13-16.4-8.3-27.6c0.2-0.6,0.5-1.1,0.8-1.6C28,19.1,31.6,15.4,35.2,12.7 M50.2,52.7l0.3-0.6
	c0.4-0.9,0.9-1.9,1.3-2.7l16.1-35.6c0.5-1.1,1.2-3,2-3.8c1.1-1.2,2.3-0.5,3,0.7c2.8,6.5,15.4,36.5,18.7,43.5
	c0.1,0.2,0.2,0.4,0.3,0.6c0.5,0.9,0.4,1.2,1.6,0.8c0.3-0.1,0.7-0.3,0.8-0.4c0.6-0.1,4.1-2.7,4.7-3.2c5.6-4.6,9.8-11.1,9.9-18.4
	c0-1.2-0.1-3.1-0.3-4.2c-1-6.5-5.6-12.1-10.7-16.1c-3.3-2.5-8-4.7-12.1-6C75,4,64.6,4.4,54.3,7.8c-1.4,0.4-2.9,1.1-4.2,1.7
	C37.7,16,28,28.1,34.7,42.2c0.2,0.3,1.6,3.2,2.1,3.5c0.1,0.4,2,2.6,2.3,3c2,2.2,3.4,3.3,5.8,5c0.3,0.2,2.1,1.4,2.5,1.5
	c0.7,0.2,0.9,0.1,1.4-0.1C49.1,54.9,49.5,54.2,50.2,52.7 M83.5,59.5c-7.9,1.8-15.7,2.4-23.7,0.4c-0.4-0.1-1-0.3-1.4-0.3l-1.3-0.3
	c-0.4-0.1-0.6-0.2-0.8-0.5c-0.4-0.7,0-1.4,0.3-2l2.8-6.1c0.5-1.2,0.9-2.4,2.1-2.9c2.6-1.1,16.1-1.2,18.4,0.1
	c0.4,0.2,1.1,0.7,1.3,1.2c0.2,0.4,1.8,4,2,4.5l1.5,3.4C85,58.1,84.5,59.3,83.5,59.5"/>
<path id="XMLID_7_" class="st0" d="M127.2,87.2c0,1.4,0.3,2.5,1,3.3c0.7,0.8,1.5,1.2,2.6,1.2c1.1,0,2-0.4,2.6-1.2
	c0.6-0.8,1-1.9,1-3.4c0-1.3-0.3-2.4-1-3.2c-0.7-0.8-1.5-1.2-2.6-1.2c-1.1,0-2,0.4-2.6,1.2C127.5,84.7,127.2,85.8,127.2,87.2
	 M134.5,81.9v-7.7h4.6v20.5h-4.6V92c-0.5,1-1.1,1.8-1.9,2.3c-0.8,0.5-1.8,0.7-3,0.7c-2.1,0-3.8-0.7-5-2.1c-1.3-1.4-1.9-3.3-1.9-5.7
	c0-2.4,0.7-4.3,2-5.8c1.3-1.5,3.1-2.2,5.2-2.2c1.1,0,2,0.2,2.7,0.6C133.2,80.3,133.8,80.9,134.5,81.9 M103.9,79.7h4.6v2.2
	c0.1-0.2,0.3-0.3,0.4-0.5c0.1-0.1,0.3-0.3,0.4-0.4c0.6-0.6,1.3-1.1,2-1.3c0.7-0.3,1.5-0.4,2.5-0.4c1.2,0,2.3,0.3,3.3,0.8
	c1,0.5,1.7,1.2,2,2c0.2,0.4,0.3,0.8,0.4,1.3c0.1,0.5,0.1,1.1,0.1,1.9v9.3h-4.6v-9c0-1-0.2-1.8-0.7-2.2c-0.4-0.5-1.1-0.7-2.1-0.7
	c-1.4,0-2.4,0.4-2.9,1.3c-0.5,0.9-0.7,1.8-0.7,2.8v0.1v0.1v7.6h-4.6V79.7z M87.6,87.2c0,1.5,0.4,2.6,1.1,3.5
	c0.8,0.9,1.8,1.3,3.1,1.3c1.3,0,2.3-0.4,3-1.3c0.8-0.9,1.1-2,1.1-3.4c0-1.5-0.4-2.6-1.1-3.5c-0.8-0.9-1.8-1.3-3-1.3
	c-1.3,0-2.3,0.4-3.1,1.3C88,84.6,87.6,85.7,87.6,87.2 M82.9,87.2c0-2.4,0.8-4.3,2.4-5.7c1.6-1.4,3.8-2.1,6.5-2.1
	c2.7,0,4.9,0.7,6.5,2.1c1.6,1.4,2.4,3.3,2.4,5.8c0,2.4-0.8,4.3-2.4,5.7c-1.6,1.4-3.8,2.1-6.5,2.1c-2.7,0-4.9-0.7-6.5-2.1
	C83.7,91.5,82.9,89.6,82.9,87.2 M76.2,87.2c0-1.4-0.3-2.5-0.9-3.3c-0.6-0.8-1.5-1.1-2.6-1.1c-1.1,0-2,0.4-2.7,1.1
	c-0.6,0.8-0.9,1.9-0.9,3.3s0.3,2.5,0.9,3.3c0.6,0.8,1.5,1.2,2.7,1.2c1.1,0,2-0.4,2.6-1.2C75.9,89.7,76.2,88.6,76.2,87.2 M64.3,74.2
	h4.6V82c0.1-0.2,0.3-0.4,0.5-0.5c0.2-0.2,0.3-0.3,0.5-0.4c0.7-0.6,1.3-1,2-1.3c0.7-0.3,1.5-0.4,2.3-0.4c2,0,3.7,0.7,4.9,2.1
	c1.2,1.4,1.8,3.2,1.8,5.5c0,2.5-0.6,4.4-1.9,5.9c-1.3,1.5-3,2.2-5.1,2.2c-1.1,0-2.1-0.2-2.8-0.7c-0.8-0.4-1.5-1.2-2.2-2.3v2.6h-4.6
	V74.2z M56,87.7c-0.4,0.1-0.8,0.1-1.1,0.1c-0.3,0-0.6,0.1-0.8,0.1c-0.1,0-0.3,0.1-0.4,0.1c-0.1,0-0.3,0-0.4,0.1
	c-0.1,0-0.2,0-0.3,0.1c-0.1,0-0.2,0-0.3,0.1c-1.1,0.2-1.9,0.4-2.3,0.7c-0.4,0.3-0.6,0.8-0.6,1.3c0,0.5,0.2,0.9,0.7,1.2
	c0.4,0.3,1,0.5,1.7,0.5c1.6,0,2.6-0.4,3.1-1.2C55.8,89.8,56,88.8,56,87.7 M45.7,84.5c0.1-1.8,0.8-3.1,2-3.9c1.2-0.8,3.1-1.3,5.5-1.3
	c1.8,0,3.2,0.2,4.4,0.6c1.2,0.4,2,1,2.4,1.8c0,0,0,0,0,0l0,0c0.2,0.4,0.4,0.8,0.4,1.2c0.1,0.4,0.1,1.1,0.1,1.9v6.8v0.7
	c0,0.5,0.1,1,0.2,1.3c0.1,0.4,0.3,0.7,0.6,1h-4.7c-0.1-0.1-0.2-0.3-0.3-0.4c-0.1-0.1-0.1-0.2-0.2-0.3c-0.1-0.2-0.2-0.4-0.2-0.6
	c0-0.2-0.1-0.4-0.1-0.7c-0.3,0.3-0.6,0.6-0.9,0.8c-0.3,0.2-0.6,0.4-0.8,0.6c-0.6,0.4-1.2,0.6-1.8,0.8c-0.6,0.1-1.4,0.2-2.2,0.2
	c-1.5,0-2.7-0.4-3.7-1.2c-0.9-0.8-1.4-1.9-1.4-3.2c0-1.3,0.4-2.3,1.1-3.1c0.7-0.8,1.9-1.3,3.5-1.6c0.8-0.1,1.7-0.3,2.8-0.4
	c1-0.1,2.1-0.2,3.3-0.3c0-0.9-0.1-1.6-0.4-2c-0.3-0.5-1-0.7-2.2-0.7c-1,0-1.8,0.2-2.3,0.5c-0.5,0.3-0.8,0.8-1,1.6L45.7,84.5
	L45.7,84.5z M26.6,79.7h4.6v2.2c0.1-0.2,0.3-0.3,0.4-0.5c0.1-0.1,0.3-0.3,0.4-0.4c0.6-0.6,1.3-1.1,2-1.3s1.5-0.4,2.5-0.4
	c1.2,0,2.3,0.3,3.3,0.8c1,0.5,1.7,1.2,2,2c0.2,0.4,0.3,0.8,0.4,1.3c0.1,0.5,0.1,1.1,0.1,1.9v9.3h-4.6v-9c0-1-0.2-1.8-0.7-2.2
	c-0.4-0.5-1.1-0.7-2.1-0.7c-1.4,0-2.4,0.4-2.9,1.3c-0.5,0.9-0.7,1.8-0.7,2.8v0.1v0.1v7.6h-4.6L26.6,79.7z M9.7,86.9h5.9l-3-8
	L9.7,86.9z M1.6,94.7L10,74.2h5.5l8.3,20.5h-5.3l-1.6-4.3H8.3l-1.6,4.3H1.6z"/>
<path id="XMLID_2_" class="st1" d="M141.2,72.3c0-1.6,1.2-2.8,2.8-2.8c1.6,0,2.8,1.3,2.8,2.8c0,1.6-1.2,2.8-2.8,2.8
	C142.5,75.1,141.2,73.9,141.2,72.3 M144,74.5c1.2,0,2.2-1,2.2-2.2c0-1.3-1-2.2-2.2-2.2c-1.3,0-2.2,1-2.2,2.2
	C141.8,73.5,142.8,74.5,144,74.5 M142.9,71C142.9,70.9,143,70.9,142.9,71l1.3-0.1c0.7,0,1.1,0.3,1.1,0.9c0,0.5-0.3,0.8-0.8,0.9
	l0.8,0.9c0.1,0.1,0,0.1-0.1,0.1h-0.4c-0.1,0-0.1,0-0.1-0.1l-0.8-0.9h-0.5v0.9c0,0.1,0,0.1-0.1,0.1H143c-0.1,0-0.1,0-0.1-0.1
	L142.9,71L142.9,71z M144.3,72.3c0.4,0,0.5-0.2,0.5-0.5c0-0.3-0.2-0.5-0.5-0.5h-0.8v0.9H144.3z"/>
</svg>
