<?xml version="1.0" encoding="utf-8"?>
<!-- Generator: Adobe Illustrator 19.0.0, SVG Export Plug-In . SVG Version: 6.00 Build 0)  -->
<svg version="1.1" id="Layer_1" xmlns="http://www.w3.org/2000/svg" xmlns:xlink="http://www.w3.org/1999/xlink" x="0px" y="0px"
	 viewBox="0 0 191.4 40.9" style="enable-background:new 0 0 191.4 40.9;" xml:space="preserve">
<style type="text/css">
	.st0{fill-rule:evenodd;clip-rule:evenodd;fill:#15A54A;}
	.st1{fill:#15A54A;}
</style>
<path id="XMLID_20_" class="st0" d="M35.2,24.7c0.3,0.7-0.4,0.7-0.6,0.7c-0.3-0.1-1.2-0.1-1.5-0.1c-0.5,0-1,0-1.5-0.1
	c-1,0-2.1,0-3.1,0.1l-0.7,0.1c-0.3,0.1-0.6,0-0.7-0.3c-0.1-0.3,0.1-0.6,0.2-0.8c0.2-0.5,3.4-7.4,3.5-7.6c0.1-0.2,0.2-0.5,0.5-0.5
	c0.3,0,0.4,0.3,0.5,0.5 M8.7,7.7c9.5-7.1,23.6-8,34.6-4.8c2,0.6,4,1.4,5.8,2.4c5.7,2.9,11,8,11.3,14.7c0.3,6.2-3.7,11-8.4,14.3
	c-1.1,0.7-2.5,1.6-3.7,2.1c-2.5,1.2-4.9,2-7.7,2.7c-10.2,2.5-23.9,0.9-32.3-5.7c-0.2-0.1-0.6-0.5-0.7-0.6C2.5,28-0.5,22.4,2.4,15.4
	c0.1-0.4,0.3-0.7,0.5-1C4.1,11.8,6.4,9.4,8.7,7.7 M18.2,32.9l0.2-0.4c0.2-0.6,0.5-1.2,0.8-1.7L29.3,8.3c0.3-0.7,0.8-1.9,1.3-2.4
	c0.7-0.7,1.4-0.3,1.9,0.4c1.7,4.1,9.7,23.1,11.8,27.5c0.1,0.1,0.1,0.3,0.2,0.4c0.3,0.6,0.3,0.7,1,0.5c0.2-0.1,0.4-0.2,0.5-0.3
	c0.4,0,2.6-1.7,3-2c3.5-2.9,6.2-7,6.2-11.6c0-0.7,0-1.9-0.2-2.6c-0.6-4.1-3.6-7.7-6.8-10.1c-2.1-1.6-5-3-7.7-3.8
	c-6.6-2.1-13.2-1.8-19.7,0.3c-0.9,0.3-1.9,0.7-2.7,1.1C10.3,9.8,4.2,17.4,8.4,26.3c0.1,0.2,1,2,1.3,2.2c0.1,0.3,1.3,1.7,1.5,1.9
	c1.3,1.4,2.2,2.1,3.6,3.1c0.2,0.1,1.3,0.9,1.6,1c0.4,0.1,0.6,0.1,0.9-0.1C17.5,34.3,17.7,33.9,18.2,32.9 M39.2,37.2
	c-5,1.1-9.9,1.5-15,0.3c-0.3-0.1-0.6-0.2-0.9-0.2l-0.8-0.2c-0.3,0-0.4-0.1-0.5-0.3c-0.3-0.5,0-0.9,0.2-1.2l1.8-3.8
	c0.3-0.8,0.6-1.5,1.3-1.8c1.6-0.7,10.2-0.8,11.6,0c0.3,0.2,0.7,0.5,0.8,0.8c0.2,0.2,1.1,2.6,1.3,2.9l0.9,2.2
	C40.2,36.4,39.8,37.1,39.2,37.2"/>
<path id="XMLID_7_" class="st0" d="M173.3,22.8c0,1.2,0.3,2.1,0.8,2.8c0.6,0.7,1.3,1,2.2,1c0.9,0,1.7-0.3,2.2-1
	c0.6-0.7,0.8-1.7,0.8-2.9c0-1.1-0.3-2-0.8-2.7c-0.6-0.7-1.3-1-2.2-1c-0.9,0-1.7,0.4-2.2,1C173.6,20.7,173.3,21.7,173.3,22.8
	 M179.5,18.3v-6.6h3.9v17.5h-3.9V27c-0.4,0.9-0.9,1.5-1.7,1.9c-0.7,0.4-1.6,0.6-2.6,0.6c-1.8,0-3.2-0.6-4.3-1.8
	c-1.1-1.2-1.6-2.8-1.6-4.8c0-2,0.6-3.7,1.7-4.9c1.1-1.3,2.6-1.9,4.5-1.9c0.9,0,1.7,0.2,2.3,0.5C178.4,16.9,179,17.5,179.5,18.3
	 M153.4,16.4h3.9v1.9c0.1-0.1,0.2-0.3,0.3-0.4c0.1-0.1,0.2-0.2,0.3-0.4c0.5-0.5,1.1-0.9,1.7-1.2c0.6-0.2,1.3-0.3,2.1-0.3
	c1,0,2,0.2,2.8,0.7c0.8,0.5,1.4,1,1.7,1.7c0.1,0.3,0.2,0.7,0.3,1.1c0.1,0.4,0.1,0.9,0.1,1.6v8h-3.9v-7.7c0-0.9-0.2-1.5-0.6-1.9
	c-0.4-0.4-1-0.6-1.8-0.6c-1.2,0-2.1,0.4-2.5,1.1c-0.4,0.7-0.6,1.5-0.6,2.4v0.1v0.1v6.5h-3.9V16.4z M139.5,22.8c0,1.3,0.3,2.2,1,3
	c0.7,0.7,1.5,1.1,2.6,1.1c1.1,0,2-0.4,2.6-1.1c0.6-0.7,1-1.7,1-2.9c0-1.3-0.3-2.2-1-3c-0.6-0.7-1.5-1.1-2.6-1.1
	c-1.1,0-2,0.4-2.6,1.1C139.9,20.6,139.5,21.6,139.5,22.8 M135.5,22.8c0-2.1,0.7-3.7,2-4.9c1.4-1.2,3.2-1.8,5.5-1.8
	c2.3,0,4.2,0.6,5.6,1.8c1.4,1.2,2,2.9,2,4.9c0,2.1-0.7,3.7-2,4.9c-1.4,1.2-3.2,1.8-5.6,1.8c-2.3,0-4.2-0.6-5.5-1.8
	C136.2,26.5,135.5,24.9,135.5,22.8 M129.8,22.8c0-1.2-0.3-2.2-0.8-2.8c-0.5-0.7-1.3-1-2.2-1c-1,0-1.7,0.3-2.3,1
	c-0.5,0.7-0.8,1.6-0.8,2.8c0,1.2,0.3,2.2,0.8,2.8c0.5,0.7,1.3,1,2.3,1c1,0,1.7-0.3,2.2-1C129.5,25,129.8,24,129.8,22.8 M119.7,11.7
	h3.9v6.7c0.1-0.2,0.3-0.3,0.4-0.5c0.1-0.1,0.3-0.3,0.4-0.4c0.6-0.5,1.1-0.9,1.7-1.1c0.6-0.2,1.2-0.3,2-0.3c1.7,0,3.1,0.6,4.2,1.8
	c1,1.2,1.6,2.8,1.6,4.7c0,2.1-0.5,3.8-1.6,5c-1.1,1.3-2.5,1.9-4.3,1.9c-1,0-1.8-0.2-2.4-0.6c-0.6-0.4-1.3-1-1.9-1.9v2.2h-3.9V11.7z
	 M112.5,23.2c-0.4,0-0.7,0.1-0.9,0.1c-0.3,0-0.5,0.1-0.7,0.1c-0.1,0-0.2,0.1-0.4,0.1c-0.1,0-0.2,0-0.3,0c-0.1,0-0.2,0-0.3,0
	c-0.1,0-0.2,0-0.3,0c-0.9,0.2-1.6,0.4-1.9,0.6c-0.4,0.3-0.5,0.6-0.5,1.1c0,0.4,0.2,0.8,0.6,1c0.4,0.3,0.9,0.4,1.5,0.4
	c1.4,0,2.2-0.3,2.7-1.1C112.3,25.1,112.5,24.3,112.5,23.2 M103.8,20.5c0.1-1.5,0.6-2.6,1.7-3.4c1.1-0.7,2.6-1.1,4.7-1.1
	c1.5,0,2.8,0.2,3.7,0.5c1,0.3,1.7,0.8,2.1,1.5c0,0,0,0,0,0l0,0c0.2,0.3,0.3,0.6,0.4,1c0.1,0.4,0.1,0.9,0.1,1.6v5.8v0.6
	c0,0.5,0.1,0.8,0.2,1.1c0.1,0.3,0.3,0.6,0.6,0.8h-4c-0.1-0.1-0.2-0.2-0.2-0.3c-0.1-0.1-0.1-0.2-0.2-0.3c-0.1-0.1-0.1-0.3-0.2-0.5
	c0-0.2,0-0.4,0-0.6c-0.3,0.3-0.5,0.5-0.7,0.7c-0.2,0.2-0.5,0.4-0.7,0.5c-0.5,0.3-1,0.5-1.5,0.7c-0.5,0.1-1.2,0.2-1.9,0.2
	c-1.3,0-2.3-0.3-3.1-1c-0.8-0.7-1.2-1.6-1.2-2.8c0-1.1,0.3-2,0.9-2.6c0.6-0.6,1.6-1.1,3-1.4c0.7-0.1,1.5-0.2,2.4-0.4
	c0.9-0.1,1.8-0.2,2.9-0.3c0-0.8-0.1-1.4-0.4-1.7c-0.2-0.4-0.9-0.6-1.9-0.6c-0.9,0-1.5,0.1-1.9,0.4c-0.4,0.3-0.7,0.7-0.8,1.4
	L103.8,20.5L103.8,20.5z M87.4,16.4h3.9v1.9c0.1-0.1,0.2-0.3,0.3-0.4c0.1-0.1,0.2-0.2,0.3-0.4c0.5-0.5,1.1-0.9,1.7-1.2
	c0.6-0.2,1.3-0.3,2.1-0.3c1,0,2,0.2,2.8,0.7c0.8,0.5,1.4,1,1.7,1.7c0.1,0.3,0.2,0.7,0.3,1.1c0.1,0.4,0.1,0.9,0.1,1.6v8h-3.9v-7.7
	c0-0.9-0.2-1.5-0.6-1.9c-0.4-0.4-1-0.6-1.8-0.6c-1.2,0-2.1,0.4-2.5,1.1c-0.4,0.7-0.6,1.5-0.6,2.4v0.1v0.1v6.5h-3.9L87.4,16.4z
	 M73,22.6h5.1l-2.5-6.9L73,22.6z M66.1,29.2l7.2-17.5h4.7l7.1,17.5h-4.5l-1.4-3.7h-7.3l-1.4,3.7H66.1z"/>
<path id="XMLID_2_" class="st1" d="M185.3,10.1c0-1.3,1.1-2.4,2.4-2.4c1.3,0,2.4,1.1,2.4,2.4c0,1.3-1.1,2.4-2.4,2.4
	C186.4,12.5,185.3,11.4,185.3,10.1 M187.7,12c1.1,0,1.9-0.8,1.9-1.9c0-1.1-0.8-1.9-1.9-1.9c-1.1,0-1.9,0.9-1.9,1.9
	C185.8,11.2,186.6,12,187.7,12 M186.8,9C186.8,8.9,186.8,8.9,186.8,9l1.2-0.1c0.6,0,0.9,0.3,0.9,0.8c0,0.4-0.3,0.7-0.7,0.8l0.7,0.7
	c0,0,0,0.1,0,0.1h-0.4c0,0-0.1,0-0.1-0.1l-0.7-0.8h-0.5v0.7c0,0,0,0.1-0.1,0.1h-0.3c0,0-0.1,0-0.1-0.1L186.8,9L186.8,9z M187.9,10.1
	c0.3,0,0.5-0.2,0.5-0.4c0-0.2-0.1-0.4-0.5-0.4h-0.7v0.8H187.9z"/>
</svg>
